<svg version="1" xmlns="http://www.w3.org/2000/svg" width="3604" height="3604" viewBox="0 0 2703.000000 2703.000000"><path d="M1318.5 141.1c-6.6 2.7-12.8 5.3-13.7 5.9-1 .5-2.3 1-2.8 1-.6 0-5.9 2.1-11.8 4.6-13.1 5.5-7.1 3.1-49.2 20.3-10.7 4.4-35 14.3-54 22.1-19 7.8-40.6 16.6-48 19.7-7.4 3-14.4 5.8-15.5 6.3-1.1.5-4.9 2.1-8.5 3.6-3.6 1.4-7.6 3.1-9 3.7-1.4.5-3 1.1-3.5 1.2-.6.2-3.1 1.2-5.5 2.3-2.5 1.1-10.8 4.5-18.5 7.6-7.7 3.1-14.9 6.1-16 6.6-2 .9-14 5.8-73 30-31 12.6-52.2 21.3-77.8 31.9-8.1 3.4-14.9 6.1-15.2 6.1-.3 0-2.4.9-4.8 1.9-2.3 1.1-15.4 6.5-29.2 12.1-13.7 5.6-26.3 10.8-28 11.5-1.6.7-10.4 4.3-19.5 8s-19.4 7.9-23 9.5c-3.6 1.5-12.3 5.1-19.5 8-7.1 2.8-14.3 5.8-16 6.5-1.6.8-5.5 2.3-8.5 3.5-3 1.2-6.8 2.8-8.5 3.5-1.6.8-9.3 3.9-17 7-7.7 3.1-15.3 6.2-17 6.9-1.6.7-5 2.1-7.5 3.1s-6.9 2.8-9.8 4.1c-2.9 1.3-5.7 2.4-6.2 2.4-.6 0-1.8.5-2.8 1-.9.6-19.9 8.5-42.2 17.6-56.4 23-70.6 28.8-119 48.7-78.2 32.1-85.1 34.9-85.7 34.4-.5-.6 5.4-3.3 9.4-4.3 2.4-.6 4.2-2.4 2.4-2.4-.6 0-3.5-.9-6.5-2-5.4-2.1-5.5-2.2-7.7-8.7l-2.2-6.6-2.2 6.2c-1.3 3.4-2.6 6.5-3 6.9-.3.4-3.4 1.7-6.8 2.8-4.9 1.7-5.8 2.3-4.2 2.9 1.1.3 3.5 1.3 5.3 2.1 1.8.8 3.8 1.4 4.5 1.4.7 0 1.8 1.3 2.4 3 .9 2.4.9 3-.2 3-1 0-10.5 19.4-10.5 21.5 0 .2-1.1 2.8-2.3 5.7-1.3 2.9-3.9 8.9-5.7 13.3-1.8 4.4-3.8 9.3-4.5 11-.7 1.6-2.5 5.9-4 9.5-1.5 3.6-3.5 8.3-4.5 10.5-1 2.2-3 7.1-4.5 11-1.5 3.8-3.9 9.5-5.2 12.5-1.4 3-3.4 7.7-4.5 10.5-1.1 2.7-2.6 6.3-3.3 8-.8 1.6-2.5 5.9-4 9.5-2.6 6.4-2.9 7.2-5.8 14-2.2 5.2-9.6 22.7-10.9 25.8-.6 1.5-1.2 3.2-1.3 3.8-.2.6-1.4 3.5-2.8 6.5s-3.1 6.7-3.7 8.3c-.6 1.5-4 9.9-7.6 18.5-3.6 8.6-8.9 21-11.6 27.6-2.8 6.6-6.3 15.1-8 19-1.6 3.8-3.3 7.9-3.7 9-.5 1.1-2 4.7-3.4 8s-6.4 15.4-11.2 27c-4.7 11.5-9 21.7-9.4 22.5-.5.8-3.9 8.9-7.6 18-3.7 9.1-8 19.3-9.6 22.8-1.6 3.5-2.9 6.7-2.9 7.1 0 .4-.6 2.1-1.4 3.7-.8 1.6-6 13.9-11.6 27.4-5.6 13.5-10.5 25.4-11 26.5-2.9 6.6-5.2 12-8.5 20-2 4.9-4.3 10.3-5 12-.7 1.6-5.2 12.4-10 24-4.8 11.5-9.6 23-10.7 25.5-3.1 7-12.9 30.4-20.3 48.5-2 4.9-4.3 10.3-5 12-.8 1.6-5.4 12.7-10.3 24.5-5 11.8-14 33.4-20.1 48-6.2 14.6-11.3 26.9-11.5 27.5-.1.5-.9 2.6-1.8 4.5-1.6 3.6-6.2 14.5-8.1 19-.5 1.4-1.1 2.9-1.3 3.5-.1.5-4.2 10.2-8.9 21.5-4.8 11.3-11.1 26.3-14.1 33.5-3 7.1-5.9 13.9-6.4 15-.7 1.5-31.3 74.7-43 103-.7 1.6-2.1 4.8-3 7-5 11.5-16 38.5-16 39.3 0 .5 3.9 10.3 8.6 21.8 4.7 11.5 11.1 27 14.1 34.4 3 7.4 7 17.1 8.8 21.5 1.8 4.4 5.4 13.2 7.9 19.5 2.6 6.3 5.1 12.4 5.5 13.5.5 1.1 1.6 3.6 2.4 5.5.9 1.9 2.5 5.9 3.6 8.8 2.8 7 28.9 70.8 30.6 74.7.7 1.6 7.4 18.1 14.9 36.5s14.1 34.4 14.6 35.5c.5 1.1 4.1 9.9 8 19.5 3.9 9.6 7.4 18.4 7.9 19.5.5 1.1 1.6 3.6 2.4 5.5.9 1.9 3 7.1 4.7 11.5 1.7 4.4 3.8 9.3 4.5 11 1.3 2.8 11.5 27.9 26.2 64 3.6 8.8 7.1 17.3 7.8 19 .8 1.6 5 12 9.5 23 4.4 11 8.5 21 9 22.2 2.2 5.1 3.1 7.3 8 19.3 7.8 19.3 11.1 27.3 12.1 29.5.5 1.1 7.2 17.5 14.9 36.5s14.5 35.4 15 36.5c.5 1.1 4.1 9.9 8 19.5 3.9 9.6 7.5 18.4 8 19.5.5 1.1 7.7 18.6 16 39 8.3 20.3 15.9 39 17 41.5 1.1 2.5 8.8 21.1 17.1 41.5 8.3 20.3 17.7 43.3 20.8 51 3.2 7.7 14.2 34.7 24.6 60 10.3 25.3 19.3 46.5 19.9 47.2.9 1.1 23.2 10.6 61.5 26.5 5.2 2.1 10.8 4.5 12.5 5.2 4.7 2.1 20.4 8.6 26.6 11.1 3 1.2 15.4 6.4 27.5 11.5 45.1 18.9 53.2 22.3 61.4 25.6 4.6 1.9 10.8 4.6 13.8 5.9 2.9 1.4 5.5 2.5 5.8 2.5.2 0 10.4 4.2 22.7 9.4 12.3 5.1 40.3 16.9 62.3 26 22 9.2 41.9 17.6 44.2 18.7 2.4 1 4.5 1.9 4.8 1.9.4 0 5.7 2.3 15.2 6.6 1.7.8 3.6 1.4 4.2 1.4.6 0 1.9.4 2.9 1 3.2 1.7 12.6 5.8 36.2 15.5 12.9 5.3 24.9 10.2 26.5 11 1.7.7 11.3 4.8 21.5 9s19.9 8.3 21.5 9c2.6 1.2 70.5 29.5 93.5 39.1 4.7 2 9.9 4.1 11.5 4.9 1.7.7 14 5.9 27.5 11.5s25.9 10.8 27.5 11.6c1.7.7 8.6 3.6 15.5 6.5 6.9 2.8 16.6 6.8 21.5 8.9 5 2.1 14.4 6 21 8.7 21.6 9 55.9 23.4 59 24.7 3.7 1.7 43.7 18.4 76 31.8 13.2 5.4 26 10.8 28.4 11.9 2.4 1.1 6.6 2.9 9.5 4 2.8 1.1 7.4 3.1 10.4 4.5 2.9 1.3 5.6 2.4 6.1 2.4.4 0 2.1.6 3.7 1.4 6.9 3.4 22.4 9.6 23.9 9.6.8 0 2.3-.4 3.3-1 .9-.5 14.5-6.2 30.2-12.6 15.7-6.4 29.9-12.2 31.5-12.9 1.7-.7 16.5-6.8 33-13.5 16.5-6.8 35.2-14.4 41.5-17 20.5-8.4 60.1-24.7 74.5-30.5 7.7-3.1 15.4-6.3 17-7 3.9-1.6 14.8-6.1 30.5-12.5 6.9-2.8 13.4-5.5 14.5-6 1.1-.5 4.9-2.1 8.5-3.5 3.6-1.5 7.9-3.3 9.7-4.1 1.7-.8 3.3-1.4 3.6-1.4.2 0 2.2-.8 4.3-1.7 2.2-.9 4.4-1.8 4.9-1.9.9-.2 41.6-17 47-19.3 1.1-.5 6.1-2.5 11-4.6 5-2 9.9-4 11-4.5 1.1-.5 13.3-5.5 27-11.1 28.7-11.7 46-18.8 56-22.9 3.9-1.6 11.1-4.5 16-6.5 5-2.1 10.4-4.3 12-5 1.7-.7 6.6-2.7 11-4.5 4.4-1.7 8.9-3.6 10-4.1 1.1-.5 13.7-5.6 28-11.5 14.3-5.8 27.4-11.2 29-11.9 3.4-1.5 69.3-28.5 86-35.2 6-2.4 12.3-5 14-5.7 1.6-.8 11.6-4.9 22-9.1 10.5-4.2 21.5-8.7 24.5-10 5.1-2.2 41.6-17.1 95.5-39.1 12.7-5.2 23.9-9.9 25-10.4 1.1-.5 8.3-3.5 16-6.5 7.7-3.1 15.4-6.3 17-7 1.7-.7 12-5 23.1-9.5l20.1-8.2 17.8-42.6c9.8-23.5 18.9-45 20.2-47.9 1.3-2.8 2.3-5.4 2.3-5.7 0-.6 8.1-19.9 11.1-26.3 1-2.4 1.9-4.5 1.9-4.8 0-.3.9-2.4 1.9-4.8 1.1-2.3 4.3-9.8 7.1-16.7 2.8-6.9 5.5-13.4 6-14.5.9-1.9 5.2-12.2 25.7-61.5 4.7-11.3 9.4-22.3 10.3-24.5 1-2.2 5.7-13.5 10.5-25 4.8-11.6 9.5-22.9 10.6-25.2 1-2.3 1.9-4.4 1.9-4.8 0-.3.9-2.4 1.9-4.8 1.1-2.3 3.2-7.1 4.7-10.7 1.4-3.6 3.1-7.6 3.7-9 .6-1.4 1.1-2.7 1.2-3 .1-.3.6-1.6 1.2-3s8.6-20.5 17.8-42.5c9.1-22 17.4-41.8 18.4-44 1-2.2 4.6-10.8 8-19 3.4-8.3 7.2-17.5 8.6-20.5 1.3-3 7.7-18.1 14-33.5 6.4-15.4 12-28.9 12.5-30 1.3-2.9 8.6-20.3 17-40.5 4-9.6 8.1-19.3 9.1-21.5.9-2.2 3.4-8.1 5.4-13 2-5 4.3-10.4 5-12 .7-1.7 5.2-12.5 10-24 4.8-11.6 9.3-22.4 10.1-24 .7-1.7 3.6-8.6 6.5-15.5 2.8-6.9 5.7-13.9 6.5-15.5.7-1.7 3.6-8.6 6.4-15.5 2.8-6.9 5.8-13.9 6.5-15.5.7-1.7 5.9-14 11.5-27.5s10.7-25.9 11.5-27.5c1.6-3.6 52.4-125.1 53.5-128 .5-1.3.2-3.4-1-5.7-.9-1.9-2-4.4-2.3-5.4-.3-1.1-4-10.2-8.2-20.4-7.6-18.3-13.8-33.4-24-58.5-25.6-62.8-35.7-87.3-36.5-89-.5-1.1-2.6-6.1-4.6-11-2-5-4.2-10.4-4.9-12-.7-1.7-4.8-11.6-9-22-4.2-10.5-8.3-20.4-9-22-.8-1.7-2.8-6.6-4.5-11-1.8-4.4-3.8-9.4-4.5-11-.7-1.7-4.2-10.2-7.8-19-7.9-19.5-8.5-21-10.7-26-1-2.2-4.5-10.8-7.8-19-3.3-8.3-8.8-21.5-12-29.5-3.3-8-9.2-22.4-13.1-32-7.3-17.9-12.4-30.2-14.6-35.5-.7-1.7-4.3-10.4-8-19.5s-7.3-17.9-8-19.5c-.7-1.7-3.8-9.1-6.8-16.5-15-36.8-19.8-48.7-20.7-50.5-.5-1.1-4.6-11-9.1-22-16.5-40.6-19.1-47.1-20.4-50-1.3-2.9-12.6-30.6-27.1-66-4-9.9-10.9-26.8-15.3-37.5-4.4-10.6-7.8-19.6-7.6-19.9 1.5-1.4 5.4 2.2 6.7 6.1l1.5 4.3 1.7-4.7c1.6-4.1 2.2-4.7 6.4-5.9l4.5-1.2-5.1-2c-3.3-1.2-5.2-2.6-5.2-3.6-.1-.9-.6-2.6-1.4-3.9-1.2-2.3-1.3-2.3-2.5 1.8-.9 3-1.9 4.4-3.9 5.1-4.1 1.4-4.6 1.1-6.5-3.9-1-2.6-2.4-6.1-3.1-7.7-.8-1.7-5-11.8-9.4-22.5-19.6-48.1-30.5-74.7-31.7-77.5-.7-1.7-3.6-8.6-6.4-15.5-2.8-6.9-8.4-20.6-12.5-30.5l-7.4-18-12.3-5.3c-20.9-8.8-79.8-33.5-110.9-46.4-8-3.3-17.4-7.2-21-8.8-3.6-1.5-32.6-13.7-64.5-27-66.2-27.7-78.2-32.7-81-34-1.1-.5-13-5.5-26.5-11-13.5-5.6-25.8-10.7-27.5-11.5-1.6-.7-11.3-4.8-21.5-9s-32.2-13.4-49-20.5c-16.8-7-41.5-17.3-55-22.9-13.5-5.6-25.4-10.6-26.5-11.1-2.3-1.1-20.9-8.9-65.5-27.5-16.8-7-33.5-14-37.2-15.6-3.6-1.6-6.9-2.9-7.2-2.9-.3 0-2.9-1.1-5.8-2.4-6.7-3-9.6-4.2-53.8-22.6-20.1-8.4-37.8-15.8-39.5-16.5-1.6-.8-10.2-4.4-19-8-8.8-3.7-17.3-7.3-19-8-1.6-.7-4.3-1.8-6-2.5-3.1-1.2-62-25.9-122-51-18.7-7.8-34.2-14.3-34.5-14.5-.3-.2-5.9 1.9-12.5 4.6zM2297.3 465.6c-.7 3.1-1.5 3.9-5.3 5.4l-4.5 1.8 4.3 1.2c3.6 1.1 4.4 1.9 5.4 5.2 1.4 4.8 2.4 4.8 3.5 0 .8-3.2 1.4-3.9 5.3-5.1l4.5-1.4-4.3-1.6c-3.2-1.2-4.4-2.2-5.3-4.8-1.5-4.6-2.6-4.8-3.6-.7z"/></svg>